<svg width="634" height="634" viewBox="0 0 634 634" fill="none" xmlns="http://www.w3.org/2000/svg">
<path d="M317 634C492.074 634 634 492.074 634 317C634 141.926 492.074 0 317 0C141.926 0 0 141.926 0 317C0 492.074 141.926 634 317 634Z" fill="#0035F6"/>
<path d="M408.66 448.957C401.075 451.893 392.877 453.362 384.067 453.362C375.258 453.362 368.407 451.771 363.513 448.59C358.618 445.409 354.58 440.638 351.4 434.275C346.751 424.976 341.489 409.192 335.617 386.925C329.744 364.412 325.095 339.819 321.669 313.147C301.114 378.483 289.368 423.019 286.431 446.755C275.664 449.691 265.999 451.159 257.434 451.159C243.486 451.159 233.209 446.143 226.602 436.11C219.995 425.833 215.223 412.496 212.287 396.101C212.287 395.611 210.452 385.334 206.781 365.269C203.111 345.204 200.418 331.256 198.706 323.425C193.077 294.795 187.204 270.814 181.087 251.483C175.215 232.152 166.528 218.938 155.027 211.841C157.963 204.5 162.491 198.75 168.608 194.589C174.725 190.429 181.577 188.35 189.163 188.35C206.047 188.35 218.16 201.074 225.501 226.523C230.639 244.386 236.757 274.73 243.853 317.552C250.95 360.13 256.21 390.596 259.637 408.948C287.288 331.623 301.114 280.48 301.114 255.52C301.114 250.381 300.502 246.834 299.278 244.876C304.417 239.003 311.635 236.066 320.934 236.066C330.478 236.066 337.819 238.636 342.958 243.775C348.341 248.913 352.624 257.233 355.804 268.734C358.985 279.99 363.39 302.136 369.018 335.171C374.891 368.205 379.419 392.798 382.599 408.948C392.387 378.116 400.095 353.279 405.724 334.437C411.596 315.594 417.592 291.858 423.709 263.228C430.072 234.598 433.253 211.474 433.253 193.855C433.253 190.675 433.13 188.35 432.885 186.881C436.066 186.391 441.451 186.147 449.036 186.147C456.621 186.147 463.228 188.594 468.857 193.488C474.729 198.137 477.666 205.724 477.666 216.246C477.666 226.767 473.751 244.386 465.92 269.101C458.335 293.817 448.425 323.915 436.189 359.396C424.199 394.633 415.023 424.487 408.66 448.957Z" fill="#A9FFF8"/>
</svg>
